<svg width="166" height="135" viewBox="0 0 166 135" fill="none" xmlns="http://www.w3.org/2000/svg">
  <!-- Background Circle -->
  <circle cx="83" cy="67.5" r="55" fill="#E1DCC9" opacity="0.6"/>
  
  <!-- Card Shadow -->
  <rect x="29" y="34" width="116" height="75" rx="16" fill="#412D15" />
  
  <!-- Card Base -->
  <rect x="25" y="30" width="116" height="75" rx="16" fill="#F8F5EF" stroke="#412D15" stroke-width="2.5" />
  
  <!-- Floating Card 1 (Rotated) -->
  <g transform="rotate(-8 49 58)">
    <rect x="43" y="44" width="26" height="34" rx="4" fill="#412D15" />
    <rect x="39" y="40" width="26" height="34" rx="4" fill="#F5F1E8" stroke="#412D15" stroke-width="2" />
    <line x1="45" y1="48" x2="59" y2="48" stroke="#412D15" stroke-width="1.8" stroke-linecap="round" />
    <line x1="45" y1="56" x2="55" y2="56" stroke="#412D15" stroke-width="1.8" stroke-linecap="round" />
  </g>
  
  <!-- Floating Card 2 (Rotated) -->
  <g transform="rotate(10 105 68)">
    <rect x="99" y="48" width="26" height="34" rx="4" fill="#412D15" />
    <rect x="95" y="44" width="26" height="34" rx="4" fill="#E1DCC9" stroke="#412D15" stroke-width="2" />
    <line x1="101" y1="52" x2="115" y2="52" stroke="#412D15" stroke-width="1.8" stroke-linecap="round" />
    <line x1="101" y1="60" x2="111" y2="60" stroke="#412D15" stroke-width="1.8" stroke-linecap="round" />
  </g>
  
  <!-- Folder Shadow -->
  <rect x="63" y="55" width="40" height="30" rx="6" fill="#412D15" />
  
  <!-- Folder Base -->
  <rect x="59" y="51" width="40" height="30" rx="6" fill="#F8F5EF" stroke="#412D15" stroke-width="2.5" />
  
  <!-- Folder Tab -->
  <path d="M64 51V46H76L80 51" stroke="#412D15" stroke-width="2.5" stroke-linecap="round" stroke-linejoin="round" />
  
  <!-- Sparkle -->
  <path d="M83 37L84.5 41L88.5 42L84.5 43L83 47L81.5 43L77.5 42L81.5 41Z" fill="#C98928" stroke="#412D15" stroke-width="1.2" stroke-linejoin="round" />
</svg>