<svg width="166" height="135" viewBox="0 0 166 135" fill="none" xmlns="http://www.w3.org/2000/svg">
  <!-- Background Circle -->
  <circle cx="83" cy="67.5" r="55" fill="#E1DCC9" opacity="0.6"/>
  
  <!-- Card Shadow -->
  <rect x="29" y="34" width="116" height="75" rx="16" fill="#412D15" />
  
  <!-- Card Base -->
  <rect x="25" y="30" width="116" height="75" rx="16" fill="#F8F5EF" stroke="#412D15" stroke-width="2.5" />
  
  <!-- Document Shadow -->
  <rect x="44" y="49" width="30" height="40" rx="6" fill="#412D15" />
  
  <!-- Document Base -->
  <rect x="40" y="45" width="30" height="40" rx="6" fill="#F5F1E8" stroke="#412D15" stroke-width="2.5" />
  
  <!-- Document Lines -->
  <line x1="48" y1="55" x2="62" y2="55" stroke="#412D15" stroke-width="2.5" stroke-linecap="round" />
  <line x1="48" y1="65" x2="58" y2="65" stroke="#412D15" stroke-width="2.5" stroke-linecap="round" />
  <line x1="48" y1="75" x2="60" y2="75" stroke="#412D15" stroke-width="2.5" stroke-linecap="round" />
  
  <!-- Processing Node/Spark Shadow -->
  <circle cx="99" cy="69" r="16" fill="#412D15" />
  
  <!-- Processing Node/Spark Base -->
  <circle cx="95" cy="65" r="16" fill="#E1DCC9" stroke="#412D15" stroke-width="2.5" />
  
  <!-- Connection Dotted Line -->
  <path d="M70 65H79" stroke="#412D15" stroke-width="2.5" stroke-linecap="round" stroke-linejoin="round" />
  
  <!-- Spark inside Node -->
  <path d="M95 57L96.5 62L101.5 63.5L96.5 65L95 70L93.5 65L88.5 63.5L93.5 62Z" fill="#C98928" stroke="#412D15" stroke-width="1.5" stroke-linejoin="round" />
</svg>