<svg width="166" height="135" viewBox="0 0 166 135" fill="none" xmlns="http://www.w3.org/2000/svg">
  <!-- Background Circle -->
  <circle cx="83" cy="67.5" r="55" fill="#E1DCC9" opacity="0.6"/>
  
  <!-- Card Shadow -->
  <rect x="29" y="34" width="116" height="75" rx="16" fill="#412D15" />
  
  <!-- Card Base -->
  <rect x="25" y="30" width="116" height="75" rx="16" fill="#F8F5EF" stroke="#412D15" stroke-width="2.5" />
  
  <!-- Clock Shadow -->
  <circle cx="56" cy="70" r="18" fill="#412D15" />
  
  <!-- Clock Base -->
  <circle cx="52" cy="66" r="18" fill="#F5F1E8" stroke="#412D15" stroke-width="2.5" />
  
  <!-- Clock Hands -->
  <path d="M52 66V54 M52 66L61 61" stroke="#412D15" stroke-width="2.5" stroke-linecap="round" stroke-linejoin="round" />
  
  <!-- Sparks (Organized AI Assist) -->
  <!-- Spark 1 -->
  <path d="M106 44L108 50L114 52L108 54L106 60L104 54L98 52L104 50Z" fill="#C98928" stroke="#412D15" stroke-width="1.5" stroke-linejoin="round" />
  <!-- Spark 2 -->
  <path d="M116 71L117.5 75L122 76.5L117.5 78L116 82L114.5 78L110 76.5L114.5 75Z" fill="#E1DCC9" stroke="#412D15" stroke-width="1.5" stroke-linejoin="round" />
</svg>